<?xml version="1.0" encoding="UTF-8"?>
<svg width="215px" height="30px" viewBox="0 0 215 30" version="1.1" xmlns="http://www.w3.org/2000/svg" xmlns:xlink="http://www.w3.org/1999/xlink">
    <!-- Generator: Sketch 54.1 (76490) - https://sketchapp.com -->
    <title>Group 35</title>
    <desc>Created with Sketch.</desc>
    <defs>
        <polygon id="path-1" points="0.0342931034 0.361034483 43.8694655 0.361034483 43.8694655 12.7204391 0.0342931034 12.7204391"></polygon>
        <polygon id="path-3" points="0 0.438904984 27.5409828 0.438904984 27.5409828 8.89184483 0 8.89184483"></polygon>
    </defs>
    <g id="Desk-Personas" stroke="none" stroke-width="1" fill="none" fill-rule="evenodd">
        <g id="Home-A---Desk" transform="translate(-151.000000, -61.000000)">
            <g id="Group-35" transform="translate(151.000000, 61.000000)">
                <path d="M48.3554483,2.1542069 C40.3837241,8.48524138 32.6106207,14.7790345 28.857,24.5667931 C24.144931,17.7862759 17.0944138,15.2352414 9.31148276,13.8490345 C9.43096552,13.7186897 9.50648276,13.5919655 9.61717241,13.5216207 C16.764931,8.9667931 24.2101034,5.04972414 32.4709655,2.90265517 C37.5125172,1.59196552 42.6171724,1.27593103 47.7797586,2.01455172 C47.9251034,2.03524138 48.0668276,2.08334483 48.3554483,2.1542069" id="Fill-1" fill="#D82F2F"></path>
                <path d="M78.8092759,22.5963621 C80.2451379,23.4689483 80.3237586,24.6906724 80.0113448,26.0163621 C79.7485862,27.128431 79.448069,28.2311897 79.1537586,29.3799828 L75.288931,29.3799828 C75.3892759,28.8513621 75.4704828,28.3853276 75.5677241,27.9218793 C75.7265172,27.1636034 75.9623793,26.4141207 76.0435862,25.647569 C76.1703103,24.4605 75.6846207,23.8310172 74.5115172,23.5951552 C73.851,23.4622241 73.1692759,23.4363621 72.3644483,23.3473966 C72.713069,22.4753276 73.0161724,21.6368793 73.3953103,20.8346379 C73.4796207,20.6572241 73.8277241,20.5263621 74.0620345,20.5129138 C74.8042759,20.4710172 75.5516897,20.5232586 76.2949655,20.4865345 C77.8441034,20.4105 78.8423793,19.5880862 79.2453103,18.1030862 C79.5194483,17.0939483 79.1413448,16.5156724 78.0928966,16.4836034 C76.5122069,16.4349828 74.9273793,16.4137759 73.3482414,16.4758448 C73.0451379,16.4877414 72.6091034,16.8813621 72.4885862,17.1963621 C71.0496207,20.9660172 69.6416897,24.747569 68.271,28.542569 C68.0341034,29.1989483 67.7434138,29.4979138 67.0203103,29.4405 C66.1922069,29.3748103 65.3547931,29.4255 64.3642759,29.4255 C64.9058276,27.9441207 65.3982414,26.5842931 65.8999655,25.2280862 C67.2463448,21.5882586 68.6144483,17.9561897 69.9277241,14.3049828 C70.1713448,13.628431 70.5101379,13.422569 71.2058276,13.4406724 C74.1815172,13.5177414 77.1582414,13.5322241 80.133931,13.5896379 C80.5622069,13.598431 80.9966897,13.6868793 81.4141034,13.7949828 C82.9746207,14.1989483 83.7442759,15.2277414 83.5006552,16.8208448 C83.1416897,19.1696379 81.8956552,20.9556724 79.7920345,22.1049828 C79.5235862,22.2518793 79.2447931,22.3796379 78.8092759,22.5963621" id="Fill-3" fill="#D82F2F"></path>
                <path d="M96.2245345,22.6705862 C97.4871207,23.4417931 97.6371207,24.5926552 97.3469483,25.8645517 C97.0847069,27.0128276 96.7722931,28.1497241 96.4645345,29.3590345 L92.5593621,29.3590345 C92.7398793,28.575931 92.9116034,27.8398966 93.0786724,27.1028276 C93.161431,26.7397241 93.2503966,26.3771379 93.3088448,26.0098966 C93.5493621,24.5011034 93.041431,23.778 91.5331552,23.5323103 C90.9595345,23.4386897 90.3729828,23.4283448 89.6503966,23.3683448 C90.0098793,22.4719655 90.3140172,21.633 90.6947069,20.8312759 C90.7790172,20.6538621 91.1307414,20.5261034 91.3671207,20.5126552 C92.1093621,20.4707586 92.8572931,20.5224828 93.600569,20.4857586 C95.1579828,20.4097241 96.1448793,19.5966207 96.5498793,18.1017931 C96.8224655,17.0978276 96.4433276,16.5169655 95.396431,16.4838621 C93.8147069,16.4342069 92.2303966,16.4755862 90.6486724,16.4305862 C90.011431,16.4124828 89.8909138,16.8304138 89.7269483,17.2736897 C88.3485,21.0019655 86.9467759,24.7219655 85.6045345,28.4636897 C85.3428103,29.1914483 85.0091897,29.5142069 84.2162586,29.4412759 C83.4212586,29.3683448 82.6143621,29.4257586 81.6590172,29.4257586 C82.1959138,27.9692069 82.6862586,26.6373103 83.1786724,25.3064483 C84.536431,21.6366207 85.9076379,17.9724828 87.2395345,14.2938621 C87.4619483,13.680931 87.7360862,13.4202414 88.4276379,13.4388621 C91.4038448,13.5190345 94.3816034,13.5283448 97.3588448,13.5862759 C97.8186724,13.595069 98.2847069,13.6835172 98.7326379,13.7973103 C100.296776,14.1940345 101.087121,15.3293793 100.796431,16.9307586 C100.379534,19.2267931 99.1650517,20.9973103 97.076431,22.113 C96.8312586,22.2443793 96.5819483,22.368 96.3367759,22.4983448 C96.3129828,22.5107586 96.3026379,22.5485172 96.2245345,22.6705862" id="Fill-5" fill="#D82F2F"></path>
                <path d="M150.731845,13.5325345 C150.398224,14.4330517 150.167534,15.2446034 149.787362,15.978569 C149.6565,16.2309828 149.156328,16.4115 148.820121,16.4187414 C146.276328,16.4709828 143.732017,16.4580517 141.187707,16.4937414 C139.77719,16.5128793 138.965121,17.0616724 138.574086,18.1768448 C138.254948,19.0866724 138.549776,19.6913276 139.508741,19.7699483 C140.865983,19.8806379 142.235121,19.8377069 143.598052,19.8951207 C144.369259,19.9277069 145.1565,19.9463276 145.903397,20.1170172 C147.336155,20.4454655 147.962017,21.3739138 147.889086,22.8371897 C147.74219,25.8025345 145.069603,29.433569 141.252362,29.4201207 C138.118397,29.4092586 134.984431,29.444431 131.850466,29.4542586 C131.673569,29.4547759 131.496672,29.4092586 131.205466,29.3699483 C131.528224,28.5015 131.779086,27.6697759 132.159259,26.9021897 C132.272534,26.6725345 132.74581,26.5132241 133.056672,26.5075345 C135.507362,26.4677069 137.959603,26.4842586 140.41081,26.4589138 C141.537362,26.4470172 142.572362,26.178569 143.238569,25.1502931 C144.012362,23.9559828 143.549431,22.9597759 142.138397,22.8852931 C140.375638,22.7921897 138.594776,22.8909828 136.8465,22.6902931 C134.680293,22.4415 133.802017,20.9332241 134.379776,18.8099483 C135.182534,15.858569 137.479086,13.7358103 140.544776,13.5728793 C143.878397,13.3954655 147.229086,13.5325345 150.731845,13.5325345" id="Fill-7" fill="#D82F2F"></path>
                <path d="M122.060845,26.7065172 C123.159466,26.7463448 124.309293,26.453069 125.223259,25.6461724 C127.4055,23.7194483 128.413603,21.1891034 128.628776,18.3447931 C128.712569,17.2342759 128.057224,16.5758276 126.957052,16.3285862 C124.80119,15.8434138 122.40481,16.6492759 121.27981,18.576 C120.403086,20.0770345 119.741017,21.7518621 119.270328,23.4308276 C118.65119,25.6399655 119.623603,26.7085862 122.060845,26.7065172 M121.131879,29.6387586 C120.277914,29.5156552 119.372224,29.4623793 118.506879,29.2461724 C115.75619,28.5592759 114.609983,26.7608276 115.123603,23.9635862 C115.562224,21.576 116.502569,19.388069 117.960672,17.4453103 C120.54119,14.0082414 125.750845,12.4068621 129.840672,13.763069 C131.910155,14.4494483 132.738776,15.6178966 132.696879,17.7913448 C132.593948,23.151 128.778259,28.1247931 123.849466,29.268931 C122.979466,29.4706552 122.073259,29.5151379 121.131879,29.6387586" id="Fill-9" fill="#D82F2F"></path>
                <path d="M55.1061207,26.7067759 C56.2280172,26.7491897 57.3778448,26.4641897 58.2985345,25.6619483 C60.4973276,23.7460862 61.4909483,21.2090172 61.7242241,18.3719483 C61.8193966,17.216431 61.1521552,16.5626379 59.9878448,16.3195345 C57.7642241,15.8550517 55.4356034,16.7002241 54.2816379,18.7045345 C53.4437069,20.160569 52.8152586,21.7790172 52.3518103,23.3990172 C51.7285345,25.5760862 52.7247414,26.7036724 55.1061207,26.7067759 M59.8518103,13.1902241 C61.0543966,13.4441897 62.2906034,13.5967759 63.4512931,13.9795345 C64.8649138,14.445569 65.649569,15.5193621 65.7809483,17.0457414 C66.2288793,22.260569 62.1287069,28.1085 57.0292241,29.2097069 C55.4035345,29.5609138 53.619569,29.5541897 51.9649138,29.3157414 C48.9535345,28.8822931 47.6521552,26.8112586 48.2537069,23.7802241 C48.7316379,21.371431 49.7056034,19.1648793 51.2262931,17.2236724 C53.2414655,14.6509138 56.0206034,13.4116034 59.8518103,13.1902241" id="Fill-11" fill="#D82F2F"></path>
                <path d="M117.129828,13.4557241 C116.761552,14.4467586 116.512241,15.2779655 116.131552,16.0434828 C116.018793,16.2700345 115.538276,16.4102069 115.22069,16.4215862 C113.454828,16.4836552 111.683793,16.4381379 109.920517,16.5374483 C107.841724,16.6543448 106.348966,17.9231379 105.803793,19.9750345 L114.724655,19.9750345 C114.332069,21.0234828 114.036724,21.9214138 113.641034,22.7733103 C113.561897,22.9434828 113.102069,22.9998621 112.817069,23.001931 C110.491034,23.0200345 108.163966,22.991069 105.837931,23.0283103 C105.327414,23.0365862 104.606897,22.6698621 104.388103,23.5771034 C104.100517,24.7693448 104.374138,25.7096897 105.273103,26.0546897 C105.896379,26.2936552 106.591552,26.4245172 107.260345,26.4472759 C108.868966,26.5021034 110.48069,26.4648621 112.301897,26.4648621 C111.924828,27.4817586 111.611897,28.3657241 111.258103,29.2326207 C111.210517,29.349 110.956034,29.4472759 110.800345,29.4431379 C108.354828,29.3841724 105.896379,29.4400345 103.468966,29.1927931 C101.386552,28.9807241 100.425517,27.6964138 100.305,25.5808966 C100.024138,20.6593448 104.03431,14.8398621 108.601552,13.7681379 C110.025517,13.434 111.553448,13.5162414 113.035345,13.4650345 C114.333103,13.4205517 115.632931,13.4557241 117.129828,13.4557241" id="Fill-13" fill="#D82F2F"></path>
                <g id="Group-17" transform="translate(0.517241, 0.156207)">
                    <mask id="mask-2" fill="white">
                        <use xlink:href="#path-1"></use>
                    </mask>
                    <g id="Clip-16"></g>
                    <path d="M0.0342931034,12.1316897 C13.3951552,3.501 27.6772241,-1.51675862 43.8694655,1.0197931 C43.2301552,1.0197931 42.5908448,1.01927586 41.9520517,1.0197931 C41.2687759,1.02082759 40.5855,1.01255172 39.9032586,1.02444828 C33.2355,1.1397931 26.9639483,2.97341379 20.9965345,5.76755172 C16.7060172,7.77651724 12.6099828,10.1997931 8.40584483,12.3970345 C7.92946552,12.6458276 7.30618966,12.7492759 6.76515517,12.7135862 C4.51825862,12.5625517 2.27756897,12.3323793 0.0342931034,12.1316897" id="Fill-15" fill="#D82F2F" mask="url(#mask-2)"></path>
                </g>
                <path d="M50.9689138,13.4658103 C50.6187414,14.4190862 50.3808103,15.2233966 50.0177069,15.9661552 C49.8997759,16.2066724 49.4565,16.4063276 49.1549483,16.4171897 C47.5437414,16.4751207 45.9299483,16.4404655 44.3192586,16.4890862 C42.1065,16.5552931 40.4456379,17.5768448 39.5270172,19.6002931 C38.9792586,20.8065 38.508569,22.0721897 38.2018448,23.358569 C37.7073621,25.4378793 38.4609828,26.369431 40.5796034,26.4542586 C42.0351207,26.5127069 43.4937414,26.4816724 44.9513276,26.4899483 C45.2890862,26.4920172 45.6268448,26.4904655 46.1580517,26.4904655 C45.7902931,27.4675345 45.4970172,28.3359828 45.1230517,29.1682241 C45.0475345,29.3363276 44.6647759,29.4459828 44.4237414,29.4459828 C42.1602931,29.4470172 39.8942586,29.4806379 37.634431,29.3828793 C35.0637414,29.2721897 33.6087414,27.6490862 33.8720172,25.0913276 C34.2397759,21.5177069 35.6751207,18.404431 38.2939138,15.8906379 C40.0763276,14.1790862 42.2983966,13.5728793 44.6730517,13.4818448 C46.7115,13.4037414 48.7546034,13.4658103 50.9689138,13.4658103" id="Fill-18" fill="#D82F2F"></path>
                <path d="M182.918534,13.3620517 C182.202155,15.3332586 181.5525,17.1358448 180.891466,18.9342931 C179.724052,22.1101552 178.519397,25.2720517 177.400603,28.4644655 C177.134741,29.2211897 176.776293,29.5077414 176.008707,29.4146379 C175.56181,29.3603276 175.103534,29.4048103 174.516983,29.4048103 C175.396293,26.9841207 176.226466,24.6979138 177.110431,22.2627414 C175.245259,22.2627414 173.545603,22.2482586 171.846466,22.2679138 C170.706983,22.2808448 169.305776,21.953431 168.504569,22.4944655 C167.745259,23.007569 167.605603,24.4511897 167.209914,25.4923966 C166.835431,26.4782586 166.440259,27.4605 166.134052,28.4686034 C165.9225,29.1637759 165.602845,29.5258448 164.826466,29.4172241 C164.351638,29.3505 163.859741,29.4048103 163.254569,29.4048103 C164.259052,26.6592931 165.213879,24.042569 166.173879,21.4279138 C167.029914,19.0967069 167.937155,16.7836034 168.7275,14.4301552 C169.019224,13.5627414 169.455259,13.2358448 170.327845,13.3532586 C170.720431,13.4060172 171.125948,13.3620517 171.66181,13.3620517 C170.810431,15.6994655 169.999397,17.9251552 169.12319,20.3308448 L171.286293,20.3308448 C173.209397,20.3308448 175.133534,20.3096379 177.056121,20.3427414 C177.651466,20.3530862 177.938534,20.1436034 178.131983,19.583431 C178.720086,17.8827414 179.419397,16.2182586 179.958362,14.5030862 C180.239741,13.6072241 180.660776,13.2017069 181.602155,13.3527414 C181.961638,13.4106724 182.337672,13.3620517 182.918534,13.3620517" id="Fill-20" fill="#D82F2F"></path>
                <path d="M214.81019,13.3802069 C214.580017,15.1657241 214.417086,15.3084828 212.833293,15.3214138 C211.375707,15.3333103 209.915534,15.3172759 208.462086,15.4052069 C205.8045,15.566069 203.546741,17.5036552 202.770879,20.3246897 L212.354328,20.3246897 C212.131914,21.0012414 212.036741,21.5283103 211.782259,21.9617586 C211.659155,22.1722759 211.238638,22.3036552 210.951569,22.3062414 C208.220534,22.3315862 205.488983,22.3465862 202.758466,22.3041724 C202.064328,22.2938276 201.71519,22.5095172 201.625707,23.186069 C201.581224,23.5238276 201.47881,23.8548621 201.451397,24.1936552 C201.279155,26.3298621 202.171397,27.3431379 204.305534,27.4171034 C205.2045,27.4481379 206.105534,27.4300345 207.005534,27.4321034 C207.870362,27.4336552 208.73519,27.4321034 209.603121,27.4321034 C209.510534,29.1384828 209.238466,29.4203793 207.656741,29.4007241 C205.736224,29.376931 203.799155,29.4658966 201.899328,29.246069 C199.520534,28.971931 198.534155,27.6462414 198.5595,25.2395172 C198.623638,19.0822759 203.701397,13.7050345 209.801741,13.3931379 C211.463638,13.3083103 213.133293,13.3802069 214.81019,13.3802069" id="Fill-22" fill="#D82F2F"></path>
                <path d="M161.653293,27.5821552 C161.493466,28.044569 161.357431,28.550431 161.137603,29.0175 C161.055362,29.1923276 160.779155,29.3862931 160.592948,29.3842241 C158.300534,29.3630172 155.99519,29.4452586 153.720362,29.2233621 C151.056569,28.9637069 149.822948,27.3028448 150.121914,24.6716379 C150.539328,20.994569 152.216741,17.9506034 154.941052,15.4802586 C156.7245,13.8633621 158.912948,13.3962931 161.23381,13.3750862 C163.059672,13.3580172 164.886052,13.3714655 166.715017,13.3714655 C166.629672,15.0323276 166.342086,15.3085345 164.828121,15.3209483 C163.215879,15.3343966 161.604155,15.3809483 159.991914,15.3887069 C158.214155,15.3969828 156.828466,16.1702586 155.754155,17.5409483 C154.253638,19.4562931 153.198983,21.5775 152.932086,24.0287069 C152.692603,26.225431 153.639672,27.3385345 155.840017,27.4083621 C157.7295,27.4683621 159.621052,27.4549138 161.511569,27.4761207 C161.534845,27.4766379 161.557086,27.5087069 161.653293,27.5821552" id="Fill-24" fill="#D82F2F"></path>
                <g id="Group-28" transform="translate(0.000000, 14.638966)">
                    <mask id="mask-4" fill="white">
                        <use xlink:href="#path-3"></use>
                    </mask>
                    <g id="Clip-27"></g>
                    <path d="M-5.17241379e-05,6.89891379 C0.584431034,6.39977586 0.94287931,6.06977586 1.32512069,5.77081034 C3.44839655,4.10736207 5.56856897,2.43977586 7.71460345,0.806327586 C8.00632759,0.584431034 8.45167241,0.407017241 8.80184483,0.443741379 C14.6916724,1.0577069 20.2313276,2.6652931 24.9687414,6.40391379 C25.9002931,7.13891379 26.7206379,8.01563793 27.5409828,8.89184483 C22.4570172,5.00736207 16.6070172,4.44563793 10.574431,5.05339655 C7.32253448,5.38081034 4.11615517,6.15718966 0.889086207,6.73184483 C0.688913793,6.76753448 0.488741379,6.80684483 -5.17241379e-05,6.89891379" id="Fill-26" fill="#D82F2F" mask="url(#mask-4)"></path>
                </g>
                <path d="M195.020897,13.3620517 C194.156586,15.7123966 193.337793,17.8817069 192.562966,20.0665345 C191.994,21.6710172 191.405897,23.2760172 190.969862,24.9187759 C190.625897,26.2144655 191.117276,27.0156724 192.429517,27.2230862 C193.764,27.4341207 195.140897,27.3761897 196.499172,27.4305 C196.805897,27.4429138 197.113138,27.432569 197.419345,27.432569 C197.425552,29.0220517 197.064,29.4249828 195.620379,29.3991207 C194.043828,29.3711897 192.452276,29.4218793 190.895897,29.2186034 C188.738483,28.9372241 187.759345,27.5980862 188.274,25.467569 C188.765379,23.427569 189.562448,21.4599828 190.259172,19.4727414 C190.863828,17.7461897 191.561069,16.0511897 192.126414,14.3122241 C192.373655,13.5508448 192.751759,13.2580862 193.523483,13.3527414 C193.947103,13.4049828 194.382621,13.3620517 195.020897,13.3620517" id="Fill-29" fill="#D82F2F"></path>
                <path d="M189.072362,13.3620517 C188.724259,14.3220517 188.424776,15.158431 188.118052,15.9922241 C186.59581,20.1322241 185.050293,24.263431 183.566845,28.4168793 C183.29219,29.1860172 182.946155,29.5486034 182.114431,29.4167069 C181.694431,29.3494655 181.254776,29.4048103 180.677534,29.4048103 C181.133224,28.1365345 181.542362,26.9742931 181.967534,25.8182586 C183.338224,22.0853276 184.754431,18.3689483 186.062534,14.6142931 C186.409603,13.6196379 186.873569,13.1732586 187.91581,13.3532586 C188.24219,13.4096379 188.585638,13.3620517 189.072362,13.3620517" id="Fill-31" fill="#D82F2F"></path>
                <path d="M54.1506724,4.13906897 C48.7299828,5.26044828 43.8756724,7.46803448 39.3436034,10.5311379 C40.5927414,9.49562069 41.8092931,8.41717241 43.0987759,7.43493103 C45.0710172,5.93182759 47.0830862,4.48096552 49.1070517,3.0482069 C49.3920517,2.84648276 49.8808448,2.727 50.2020517,2.82010345 C51.533431,3.20751724 52.8368793,3.69113793 54.1506724,4.13906897" id="Fill-33" fill="#D82F2F"></path>
            </g>
        </g>
    </g>
</svg>